<?xml version="1.0" standalone="no"?><!DOCTYPE svg PUBLIC "-//W3C//DTD SVG 1.1//EN" "http://www.w3.org/Graphics/SVG/1.1/DTD/svg11.dtd"><svg t="1688368611093" class="icon" viewBox="0 0 1024 1024" version="1.1" xmlns="http://www.w3.org/2000/svg" p-id="7089" xmlns:xlink="http://www.w3.org/1999/xlink" width="48" height="48"><path d="M737.2 657c-1.4 0-2.6 0-4-0.2s-2.6-0.4-4-0.6c-1.4-0.2-2.6-0.6-4-1-1.2-0.4-2.6-1-3.8-1.4l-3.6-1.8c-1.2-0.6-2.4-1.4-3.4-2.2-1.2-0.8-2.2-1.6-3.2-2.6s-2-1.8-3-2.8c-1-1-1.8-2-2.6-3.2s-1.6-2.2-2.4-3.4c-0.8-1.2-1.4-2.4-2-3.6-0.6-1.2-1.2-2.6-1.8-3.8-0.6-1.4-1-2.6-1.4-4-0.4-1.4-0.8-2.8-1-4.2l-0.6-4.2c-0.2-1.4-0.2-2.8-0.2-4.2 0-1.4 0-2.8 0.2-4.2l0.6-4.2c0.2-1.4 0.6-2.8 1-4.2 0.4-1.4 0.8-2.6 1.4-4 0.6-1.4 1-2.6 1.8-3.8 0.6-1.2 1.4-2.4 2-3.6 0.8-1.2 1.6-2.4 2.4-3.4 0.8-1 1.8-2.2 2.8-3.2 1-1 2-2 3-2.8s2.2-1.8 3.2-2.6c1.2-0.8 2.2-1.6 3.4-2.2l3.6-1.8c1.2-0.6 2.6-1 3.8-1.4 1.2-0.4 2.6-0.8 4-1 1.4-0.2 2.6-0.4 4-0.6 1.4-0.2 2.6-0.2 4-0.2s2.6 0 4 0.2 2.6 0.4 4 0.6c1.4 0.2 2.6 0.6 4 1 1.2 0.4 2.6 0.8 3.8 1.4l3.6 1.8c1.2 0.6 2.4 1.4 3.4 2.2 1.2 0.8 2.2 1.6 3.2 2.6s2 1.8 3 2.8c1 1 1.8 2 2.8 3.2 0.8 1 1.6 2.2 2.4 3.4 0.8 1.2 1.4 2.4 2 3.6 0.6 1.2 1.2 2.6 1.8 3.8 0.6 1.4 1 2.6 1.4 4 0.4 1.4 0.8 2.8 1 4.2l0.6 4.2c0.2 1.4 0.2 2.8 0.2 4.2 0 1.4 0 2.8-0.2 4.2l-0.6 4.2c-0.2 1.4-0.6 2.8-1 4.2-0.4 1.4-0.8 2.8-1.4 4-0.6 1.4-1 2.6-1.8 3.8s-1.4 2.4-2 3.6c-0.8 1.2-1.6 2.4-2.4 3.4-0.8 1-1.8 2.2-2.8 3.2-1 1-2 2-3 2.8-1 1-2.2 1.8-3.2 2.6-1.2 0.8-2.2 1.6-3.4 2.2l-3.6 1.8c-1.2 0.6-2.6 1-3.8 1.4-1.2 0.4-2.6 0.8-4 1-1.4 0.2-2.6 0.4-4 0.6-1.4 0-2.8 0.2-4.2 0.2z m-450.6 0c-1.4 0-2.6 0-4-0.2s-2.6-0.4-4-0.6c-1.4-0.2-2.6-0.6-4-1-1.2-0.4-2.6-0.8-3.8-1.4l-3.6-1.8c-1.2-0.6-2.4-1.4-3.4-2.2-1.2-0.8-2.2-1.6-3.2-2.6s-2-1.8-3-2.8c-1-1-1.8-2-2.8-3.2-0.8-1-1.6-2.2-2.4-3.4-0.8-1.2-1.4-2.4-2-3.6-0.6-1.2-1.2-2.6-1.8-3.8s-1-2.6-1.4-4-0.8-2.8-1-4.2l-0.6-4.2c-0.2-1.4-0.2-2.8-0.2-4.2 0-1.4 0-2.8 0.2-4.2l0.6-4.2c0.2-1.4 0.6-2.8 1-4.2 0.4-1.4 0.8-2.6 1.4-4 0.6-1.4 1-2.6 1.8-3.8 0.6-1.2 1.4-2.4 2-3.6 0.8-1.2 1.6-2.4 2.4-3.4 0.8-1 1.8-2.2 2.8-3.2 1-1 2-2 3-2.8 1-1 2.2-1.8 3.2-2.6 1.2-0.8 2.2-1.6 3.4-2.2l3.6-1.8c1.2-0.6 2.6-1 3.8-1.4 1.2-0.4 2.6-0.8 4-1 1.4-0.2 2.6-0.4 4-0.6 1.4-0.2 2.6-0.2 4-0.2s2.6 0 4 0.2 2.6 0.4 4 0.6c1.4 0.2 2.6 0.6 4 1 1.2 0.4 2.6 0.8 3.8 1.4l3.6 1.8c1.2 0.6 2.4 1.4 3.4 2.2 1.2 0.8 2.2 1.6 3.2 2.6s2 1.8 3 2.8c1 1 1.8 2 2.8 3.2 0.8 1 1.6 2.2 2.4 3.4 0.8 1.2 1.4 2.4 2 3.6 0.6 1.2 1.2 2.6 1.8 3.8 0.6 1.4 1 2.6 1.4 4 0.4 1.4 0.8 2.8 1 4.2l0.6 4.2c0.2 1.4 0.2 2.8 0.2 4.2 0 1.4 0 2.8-0.2 4.2l-0.6 4.2c-0.2 1.4-0.6 2.8-1 4.2-0.4 1.4-0.8 2.6-1.4 4-0.6 1.4-1 2.6-1.8 3.8-0.6 1.2-1.4 2.4-2 3.6-0.8 1.2-1.6 2.4-2.4 3.4-0.8 1-1.8 2.2-2.8 3.2s-2 2-3 2.8c-1 1-2.2 1.8-3.2 2.6-1.2 0.8-2.2 1.6-3.4 2.2l-3.6 1.8c-1.2 0.6-2.6 1-3.8 1.4-1.2 0.4-2.6 0.8-4 1-1.4 0.2-2.6 0.4-4 0.6-1.4 0-2.6 0.2-4 0.2z m465-260.4l81.4-148.8c0.6-1 1-2 1.4-3.2 0.4-1 0.6-2.2 0.8-3.4 0.2-1.2 0.2-2.2 0.2-3.4 0-1.2-0.2-2.2-0.6-3.4-0.2-1.2-0.6-2.2-1.2-3.2-0.4-1-1-2-1.6-3-0.6-1-1.4-1.8-2.2-2.4-0.8-0.8-1.6-1.4-2.6-2-1-0.6-2-1-3-1.4-1-0.4-2-0.6-3.2-0.8-1-0.2-2.2-0.2-3.2-0.2s-2.2 0.2-3.2 0.6c-1 0.2-2 0.6-3 1.2s-1.8 1.2-2.8 1.8c-0.8 0.6-1.6 1.4-2.4 2.4-0.8 0.8-1.4 1.8-1.8 2.8L722 381c-63-30.4-133.8-47.2-210-47.2s-147 17-210 47.2l-82.4-150.8c-0.6-1-1.2-2-1.8-2.8l-2.4-2.4c-0.8-0.6-1.8-1.2-2.8-1.8-1-0.6-2-1-3-1.2-1-0.2-2.2-0.4-3.2-0.6-1 0-2.2 0-3.2 0.2s-2.2 0.4-3.2 0.8-2 0.8-3 1.4c-1 0.6-1.8 1.2-2.6 2s-1.6 1.6-2.2 2.4c-0.6 1-1.2 1.8-1.8 3-0.4 1-0.8 2-1.2 3.2-0.2 1.2-0.4 2.2-0.6 3.4s0 2.2 0.2 3.4c0.2 1.2 0.4 2.2 0.8 3.4 0.4 1 0.8 2.2 1.4 3.2l81.2 148.8C131.8 476.8 36.8 626.8 21 802.4h982c-15.8-175.6-110.8-325.6-251.4-405.8z" p-id="7090" fill="#ffffff"></path></svg>